<?xml version="1.0" encoding="UTF-8"?>
<svg version="1.1" xmlns="http://www.w3.org/2000/svg" width="260" height="59">
<path d="M0 0 C5.63413038 2.00437821 10.82783102 5.03515471 16 8 C16.70398926 8.40057617 17.40797852 8.80115234 18.13330078 9.21386719 C32.09441301 17.21828106 32.09441301 17.21828106 34 20 C33.5637207 22.09301758 33.5637207 22.09301758 33 24 C29.09107603 24.96603396 25.18071319 25.92600479 21.26904297 26.88085938 C19.94411044 27.2051234 18.61955162 27.53091904 17.29541016 27.85839844 C8.90497482 29.93215274 0.55112193 31.73072407 -8 33 C-13.70209229 23.63662526 -15.34776443 13.90103582 -14 3 C-10.82771592 -1.89438115 -5.11531063 -0.91920401 0 0 Z " fill="#D60036" transform="translate(14,0)"/>
<path d="M0 0 C-2.03993212 4.43786357 -4.99448916 7.53196181 -8.3125 11.0625 C-9.24050415 12.0529834 -9.24050415 12.0529834 -10.18725586 13.06347656 C-28.54433531 32.34155771 -28.54433531 32.34155771 -37.625 33.4375 C-41 33 -41 33 -42.69140625 31.4453125 C-44.51947092 28.02928718 -44.36145311 25.28973301 -44.3125 21.4375 C-44.31572266 20.76525391 -44.31894531 20.09300781 -44.32226562 19.40039062 C-44.28217649 15.73041222 -44.08504922 14.12757383 -42 11 C-40.29908752 10.17694092 -40.29908752 10.17694092 -38.24047852 9.54199219 C-37.46950333 9.29874207 -36.69852814 9.05549194 -35.90419006 8.80487061 C-35.07084641 8.55473206 -34.23750275 8.30459351 -33.37890625 8.046875 C-32.52320541 7.78239563 -31.66750458 7.51791626 -30.78587341 7.24542236 C-28.97597151 6.68892921 -27.16439555 6.13785609 -25.35131836 5.59179688 C-22.5725548 4.75303501 -19.80085007 3.89350006 -17.02929688 3.03125 C-15.27121664 2.49353681 -13.51276467 1.95703725 -11.75390625 1.421875 C-10.50692711 1.03452179 -10.50692711 1.03452179 -9.23475647 0.63934326 C-8.46062912 0.40870178 -7.68650177 0.1780603 -6.88891602 -0.05957031 C-6.20877945 -0.26592102 -5.52864288 -0.47227173 -4.82789612 -0.68487549 C-3 -1 -3 -1 0 0 Z " fill="#D70037" transform="translate(49,26)"/>
<path d="M0 0 C1.86328125 0.140625 1.86328125 0.140625 4 1 C5.23046875 3.546875 5.23046875 3.546875 6.1875 6.75 C6.67283203 8.32007813 6.67283203 8.32007813 7.16796875 9.921875 C8.89581173 16.31408284 10.53199685 22.72709764 7.625 28.9375 C6 31 6 31 4 32 C-4.85589454 32.99504433 -11.26026158 31.26599756 -19 27 C-18.57987777 22.06813036 -16.05928792 19.28628807 -12.875 15.75 C-11.87488413 14.60670758 -10.87619008 13.46216987 -9.87890625 12.31640625 C-9.38922363 11.75711426 -8.89954102 11.19782227 -8.39501953 10.62158203 C-5.44997249 7.19823544 -2.72496136 3.59918105 0 0 Z " fill="#D70036" transform="translate(51,27)"/>
<path d="M0 0 C1.32 0 2.64 0 4 0 C4.33 0.66 4.66 1.32 5 2 C5.804375 1.505 5.804375 1.505 6.625 1 C9.68741139 -0.28943638 11.69939439 -0.40415579 15 0 C17.640625 1.5078125 17.640625 1.5078125 20 4 C20.53283832 6.93208267 20.78920345 9.31981221 20.8125 12.25 C20.83763672 12.99507812 20.86277344 13.74015625 20.88867188 14.5078125 C20.94733102 16.33797793 20.9765808 18.16904453 21 20 C18.56183415 20.0809723 16.12635616 20.14046972 13.6875 20.1875 C12.65206055 20.22520508 12.65206055 20.22520508 11.59570312 20.26367188 C6.50126383 20.33750433 6.50126383 20.33750433 4.0390625 18.6796875 C2.43401145 16.0850561 2.68397136 13.97066924 3 11 C3.66 10.34 4.32 9.68 5 9 C4.34 8.01 3.68 7.02 3 6 C1.35 6.33 -0.3 6.66 -2 7 C-2 11.29 -2 15.58 -2 20 C-3.98 20 -5.96 20 -8 20 C-8 13.73 -8 7.46 -8 1 C-5.69 1 -3.38 1 -1 1 C-0.67 0.67 -0.34 0.34 0 0 Z M11 5 C10.01 6.485 10.01 6.485 9 8 C10.65 7.67 12.3 7.34 14 7 C13.67 6.34 13.34 5.68 13 5 C12.34 5 11.68 5 11 5 Z M10 12 C9.67 12.99 9.34 13.98 9 15 C10.65 14.67 12.3 14.34 14 14 C14 13.34 14 12.68 14 12 C12.68 12 11.36 12 10 12 Z " fill="#0D1B2B" transform="translate(159,22)"/>
<path d="M0 0 C3.58552881 1.63687185 4.79315055 2.68972583 7 6 C7 6.99 7 7.98 7 9 C5.02 9 3.04 9 1 9 C0.67 8.34 0.34 7.68 0 7 C-2.33294775 6.95758277 -4.66702567 6.95907063 -7 7 C-8.66684015 8.66684015 -8.21072764 10.65643069 -8.25 12.9375 C-8.27578125 13.83339844 -8.3015625 14.72929687 -8.328125 15.65234375 C-8.21984375 16.42707031 -8.1115625 17.20179687 -8 18 C-5.23254916 20.30075262 -5.23254916 20.30075262 -2.375 19.75 C-1.59125 19.5025 -0.8075 19.255 0 19 C0.33 18.34 0.66 17.68 1 17 C-0.65 17 -2.3 17 -4 17 C-4 15.35 -4 13.7 -4 12 C-0.37 12 3.26 12 7 12 C7 16.62 7 21.24 7 26 C5.68 26 4.36 26 3 26 C3 25.34 3 24.68 3 24 C2.01 24.66 1.02 25.32 0 26 C-4.50282411 26.72517392 -7.99285654 26.60000036 -11.9375 24.25 C-15.98954841 19.82958356 -16.38762826 16.25545122 -16.25 10.40625 C-15.79607025 6.0371762 -14.11340475 3.92253536 -10.8125 1.1875 C-7.09226394 -0.38326634 -3.98247234 -0.60462637 0 0 Z " fill="#0D1B2C" transform="translate(86,16)"/>
<path d="M0 0 C2.4375 1.625 2.4375 1.625 4 4 C4.25 7.75 4.25 7.75 4 11 C-1.445 11.495 -1.445 11.495 -7 12 C-5.68 12.33 -4.36 12.66 -3 13 C-2.67 12.67 -2.34 12.34 -2 12 C-0.00041636 11.95919217 2.00045254 11.95745644 4 12 C3.64393309 14.58148508 3.16671807 15.82045747 1.375 17.75 C-1.97963578 19.51559778 -4.25822943 19.45951568 -8 19 C-10.93063678 17.47097212 -12.53477392 16.34973 -13.6328125 13.1640625 C-14.50315651 8.33087554 -13.8509824 5.12900899 -11 1 C-7.51811815 -1.86011723 -4.17847912 -1.04461978 0 0 Z M-5 4 C-5.99 4.495 -5.99 4.495 -7 5 C-7 5.66 -7 6.32 -7 7 C-5.35 7 -3.7 7 -2 7 C-2 6.34 -2 5.68 -2 5 C-2.99 4.67 -3.98 4.34 -5 4 Z " fill="#0D1B2B" transform="translate(228,23)"/>
<path d="M0 0 C2.5 2.1875 2.5 2.1875 4 5 C4 6.98 4 8.96 4 11 C0.04 11 -3.92 11 -8 11 C-7.67 11.66 -7.34 12.32 -7 13 C-1.555 12.505 -1.555 12.505 4 12 C2 17 2 17 0.3125 18.3125 C-3.02557301 19.30490009 -5.53288536 19.42578601 -9 19 C-12.07141749 16.97417144 -13.68692009 15.5187122 -14.4453125 11.83984375 C-14.65082621 7.73641993 -14.33597269 5.53755631 -12.125 2 C-8.3037211 -1.59649779 -4.90753988 -1.40631084 0 0 Z M-6 4 C-6.99 5.485 -6.99 5.485 -8 7 C-6.02 7 -4.04 7 -2 7 C-2.66 6.01 -3.32 5.02 -4 4 C-4.66 4 -5.32 4 -6 4 Z " fill="#0D1B2B" transform="translate(146,23)"/>
<path d="M0 0 C3.43342988 2.34918886 3.92464787 3.62323935 4.75 7.75 C4.87375 9.35875 4.87375 9.35875 5 11 C1.04 11 -2.92 11 -7 11 C-6.67 11.66 -6.34 12.32 -6 13 C-3.97536745 13.65213292 -3.97536745 13.65213292 -2 14 C-2 13.34 -2 12.68 -2 12 C-0.02 12 1.96 12 4 12 C3.64393309 14.58148508 3.16671807 15.82045747 1.375 17.75 C-2.01167542 19.53246075 -4.22496295 19.52982976 -8 19 C-10.9375 17.125 -10.9375 17.125 -13 14 C-13.63495986 10.55227938 -13.64623418 7.44658229 -13 4 C-9.19914125 -1.19450696 -6.10290719 -1.36789299 0 0 Z M-5 4 C-5.99 4.495 -5.99 4.495 -7 5 C-7 5.66 -7 6.32 -7 7 C-5.35 7 -3.7 7 -2 7 C-2 6.34 -2 5.68 -2 5 C-2.99 4.67 -3.98 4.34 -5 4 Z " fill="#0D1B2C" transform="translate(108,23)"/>
<path d="M0 0 C2.3125 0.6875 2.3125 0.6875 4 2 C4.75 4.625 4.75 4.625 5 7 C3.02 7 1.04 7 -1 7 C-1 6.34 -1 5.68 -1 5 C-2.32 5 -3.64 5 -5 5 C-5 5.66 -5 6.32 -5 7 C-4.37351563 7.12117188 -3.74703125 7.24234375 -3.1015625 7.3671875 C-2.28429687 7.53476562 -1.46703125 7.70234375 -0.625 7.875 C0.18710938 8.03742187 0.99921875 8.19984375 1.8359375 8.3671875 C4 9 4 9 6 11 C5.875 14.5 5.875 14.5 5 18 C2.21773026 20.55968816 -1.46500285 20.35545701 -5.09375 20.25390625 C-7.81869924 19.89095195 -9.21700194 19.0801644 -11 17 C-11 15.68 -11 14.36 -11 13 C-9 13 -7 13 -5 13 C-5.804375 12.525625 -6.60875 12.05125 -7.4375 11.5625 C-10 10 -10 10 -11 9 C-11.375 6.6875 -11.375 6.6875 -11 4 C-7.54933699 0.24486672 -5.03019789 -0.64215292 0 0 Z " fill="#0D1B2B" transform="translate(244,22)"/>
<path d="M0 0 C1.6796875 1.03515625 1.6796875 1.03515625 3 3 C3.21714241 5.81127043 3.28284276 8.3883345 3.1875 11.1875 C3.16719727 12.31188477 3.16719727 12.31188477 3.14648438 13.45898438 C3.11118539 15.30629767 3.05737917 17.15324066 3 19 C1.02 19 -0.96 19 -3 19 C-3 14.38 -3 9.76 -3 5 C-4.65 5 -6.3 5 -8 5 C-8 9.62 -8 14.24 -8 19 C-9.98 19 -11.96 19 -14 19 C-14 12.73 -14 6.46 -14 0 C-12.02 0 -10.04 0 -8 0 C-5.06317146 -1.46841427 -3.13175678 -0.76696084 0 0 Z " fill="#0D1B2C" transform="translate(128,23)"/>
<path d="M0 0 C6.93 0 13.86 0 21 0 C21 1.65 21 3.3 21 5 C18.69 5 16.38 5 14 5 C14 11.6 14 18.2 14 25 C11.69 25 9.38 25 7 25 C7 18.73 7 12.46 7 6 C4.69 5.67 2.38 5.34 0 5 C0 3.35 0 1.7 0 0 Z " fill="#0E1B2B" transform="translate(197,17)"/>
<path d="M0 0 C2.62536766 2.44953472 2.98633657 3.83895374 3.29296875 7.453125 C3.25816406 8.70609375 3.22335938 9.9590625 3.1875 11.25 C3.16042969 12.51328125 3.13335937 13.7765625 3.10546875 15.078125 C3.07066406 16.04234375 3.03585938 17.0065625 3 18 C0.92578125 18.80859375 0.92578125 18.80859375 -2 19 C-4.49560046 17.43476407 -6.57946522 15.93705428 -8.8125 14.0625 C-9.40998047 13.58103516 -10.00746094 13.09957031 -10.62304688 12.60351562 C-12.09300067 11.41579296 -13.5480198 10.20962919 -15 9 C-14.6953125 6.64453125 -14.6953125 6.64453125 -14 4 C-9.34954373 0.55866236 -5.91640175 -0.91021565 0 0 Z " fill="#D70037" transform="translate(51,0)"/>
<path d="M0 0 C1.98 0 3.96 0 6 0 C6 1.65 6 3.3 6 5 C6.66 5 7.32 5 8 5 C8 6.32 8 7.64 8 9 C7.34 9 6.68 9 6 9 C6 12.3 6 15.6 6 19 C6.66 19 7.32 19 8 19 C8 20.65 8 22.3 8 24 C1.125 23.125 1.125 23.125 0 22 C-0.07258946 19.81360547 -0.08373783 17.62499611 -0.0625 15.4375 C-0.05347656 14.23996094 -0.04445312 13.04242188 -0.03515625 11.80859375 C-0.02355469 10.88175781 -0.01195312 9.95492188 0 9 C-0.66 9 -1.32 9 -2 9 C-2 7.68 -2 6.36 -2 5 C-1.34 5 -0.68 5 0 5 C0 3.35 0 1.7 0 0 Z " fill="#0D1C2C" transform="translate(252,18)"/>
<path d="M0 0 C1.98 0 3.96 0 6 0 C6 8.25 6 16.5 6 25 C4.02 25 2.04 25 0 25 C0 16.75 0 8.5 0 0 Z " fill="#0D1C2C" transform="translate(181,17)"/>
</svg>
